PathFileType  4	(X/Y/Z) C:\Users\hpl\Documents\MyRepositories\mocap-processing\Data\treadmill\running\
DataRate	CameraRate	NumFrames	NumMarkers	Units	OrigDataRate	OrigDataStartFrame	OrigNumFrames
  200.0		  200.0		    10		     46		 mm	  200.0	      589	    785
Frame#	Time	r_knee			r_shank_antsup			r_ankle			r_calc			r_5meta			r_toe			L_knee			L_shank_antsup			L_ankle			L_calc			L_5meta			L_toe			r_sh2			r_sh3			r_sh4			L_sh2			L_sh3			r_thigh1			r_thigh2			r_thigh3			r_thigh4			r_thigh5			L_thigh1			L_thigh2			L_thigh3			L_thigh4			r.ASIS			r.PSIS			L.ASIS			L.PSIS			C7			R_Shoulder			L_Shoulder			Sternum			R_humerus			R_elbow_med			R_elbow_lat			R_forearm			R_wrist_radius			R_wrist_ulna			L_humerus			L_elbow_med			L_elbow_lat			L_forearm			L_wrist_radius			L_wrist_ulna			
		X1	Y1	Z1	X2	Y2	Z2	X3	Y3	Z3	X4	Y4	Z4	X5	Y5	Z5	X6	Y6	Z6	X7	Y7	Z7	X8	Y8	Z8	X9	Y9	Z9	X10	Y10	Z10	X11	Y11	Z11	X12	Y12	Z12	X13	Y13	Z13	X14	Y14	Z14	X15	Y15	Z15	X16	Y16	Z16	X17	Y17	Z17	X18	Y18	Z18	X19	Y19	Z19	X20	Y20	Z20	X21	Y21	Z21	X22	Y22	Z22	X23	Y23	Z23	X24	Y24	Z24	X25	Y25	Z25	X26	Y26	Z26	X27	Y27	Z27	X28	Y28	Z28	X29	Y29	Z29	X30	Y30	Z30	X31	Y31	Z31	X32	Y32	Z32	X33	Y33	Z33	X34	Y34	Z34	X35	Y35	Z35	X36	Y36	Z36	X37	Y37	Z37	X38	Y38	Z38	X39	Y39	Z39	X40	Y40	Z40	X41	Y41	Z41	X42	Y42	Z42	X43	Y43	Z43	X44	Y44	Z44	X45	Y45	Z45	X46	Y46	Z46	

589	2.94000	1100.319	133.812	583.221	1025.510	141.769	495.538	700.447	171.843	430.220	645.253	229.703	495.559	660.133	151.835	295.818	700.014	213.619	267.651	786.173	428.550	462.959	749.098	420.308	345.972	519.457	364.154	131.442	452.797	312.641	119.455	637.400	393.805	40.910	680.596	329.277	49.414	910.890	149.017	462.789	1003.479	114.632	561.489	891.473	130.307	539.835	679.768	441.444	400.671	611.116	417.160	302.182	1040.855	124.767	807.908	1106.851	140.058	715.400	1096.776	111.909	665.967	962.444	78.517	741.306	1031.452	106.106	649.296	890.222	456.238	680.300	866.958	421.848	546.623	773.274	476.394	699.111	756.113	436.474	566.002	909.911	149.575	969.110	698.144	220.545	1032.255	894.803	421.294	975.039	697.386	328.997	1026.814	827.667	314.332	1513.749	838.058	111.767	1489.530	904.963	491.967	1467.420	979.793	283.715	1402.595	714.471	35.395	1308.232	578.857	96.419	1235.591	583.239	13.916	1273.013	693.663	-7.631	1125.231	755.442	-6.723	1028.185	709.704	-24.637	1011.388	836.630	587.886	1236.326	721.248	561.165	1131.847	758.988	636.681	1178.178	905.925	590.699	1103.105	994.327	514.041	1099.118	980.093	550.997	1037.328
590	2.94500	1107.056	133.763	592.891	1036.133	141.571	501.427	715.116	171.959	418.876	656.531	232.039	479.803	683.423	151.697	282.180	725.194	214.029	255.849	770.972	428.002	466.291	731.630	420.623	349.788	499.870	365.096	136.874	433.529	313.552	127.064	615.271	393.894	41.238	658.811	328.751	49.178	923.547	149.686	462.099	1009.933	115.199	566.052	899.511	131.654	537.972	663.347	441.283	405.726	593.051	417.340	307.822	1042.952	124.454	816.447	1111.259	139.742	725.691	1101.942	112.191	675.711	965.908	78.185	747.415	1036.986	106.151	657.572	883.158	454.590	679.831	854.865	420.302	547.084	767.336	476.216	702.778	745.015	436.601	569.931	910.826	149.748	973.820	704.290	220.823	1033.679	896.720	421.330	977.300	698.676	330.144	1028.950	827.408	313.098	1517.027	834.729	112.175	1493.106	905.563	491.182	1471.828	979.619	281.828	1406.715	709.714	36.807	1313.583	573.794	99.212	1242.102	577.686	16.889	1279.489	686.795	-5.850	1131.346	748.211	-5.435	1034.051	702.096	-22.858	1017.280	840.394	586.426	1239.617	726.283	559.148	1134.359	763.597	635.017	1180.216	911.178	587.206	1108.063	998.989	510.195	1106.576	986.210	546.307	1043.984
591	2.95000	1112.960	134.359	602.413	1045.829	141.169	507.057	730.510	175.389	406.383	668.434	235.061	463.632	706.673	152.626	268.689	750.030	214.277	244.524	755.764	427.717	470.257	714.483	421.162	354.219	480.941	365.853	142.716	415.113	314.434	135.385	592.902	393.794	41.630	636.029	328.663	48.182	935.957	150.489	461.316	1015.751	115.796	570.035	907.245	133.051	535.559	646.860	440.985	411.350	575.437	417.346	314.811	1044.832	123.952	824.632	1114.891	139.655	735.222	1106.461	112.417	684.896	969.338	77.826	754.425	1041.877	106.309	665.395	876.389	452.387	679.973	843.211	418.867	548.388	761.856	475.519	706.440	734.197	437.414	575.246	912.344	149.569	979.653	705.404	221.619	1036.576	898.783	421.368	979.772	700.021	331.133	1030.632	827.339	313.631	1520.608	831.909	112.790	1496.846	905.975	490.403	1476.217	979.396	279.920	1411.045	704.886	37.956	1319.289	569.149	101.981	1248.563	572.583	19.616	1286.032	680.692	-3.979	1137.913	741.585	-4.146	1040.209	695.194	-21.063	1023.638	844.134	584.895	1243.108	730.745	557.325	1137.087	767.930	633.580	1182.649	916.416	583.751	1113.477	1003.561	506.402	1114.480	992.160	541.545	1051.071
592	2.95500	1118.424	134.321	611.135	1054.998	140.598	512.216	745.932	178.052	394.160	681.266	238.400	447.030	730.242	153.574	255.736	775.708	214.476	233.697	741.161	427.624	475.063	697.478	421.965	359.677	462.782	366.735	149.066	397.639	315.135	144.148	571.873	394.160	42.524	614.667	328.984	48.057	948.021	151.350	460.186	1020.968	116.736	573.342	914.863	134.743	532.668	630.862	440.729	417.933	558.120	417.483	321.911	1046.931	123.803	832.392	1118.216	139.423	744.343	1110.659	112.728	693.566	972.462	78.242	760.682	1046.468	106.537	673.040	869.829	449.918	680.582	828.556	415.683	549.973	756.625	475.820	710.829	723.989	438.287	580.463	913.279	149.686	983.772	706.826	222.152	1039.971	901.003	421.345	982.324	701.743	332.260	1033.570	827.290	314.261	1524.045	829.013	113.152	1500.898	906.156	489.805	1480.804	979.174	277.985	1415.551	700.462	39.232	1325.034	564.668	104.790	1255.335	567.612	22.359	1292.743	674.874	-2.003	1144.882	735.367	-2.685	1046.653	688.720	-19.322	1030.458	847.708	583.314	1246.810	734.954	555.462	1139.949	772.167	631.970	1185.281	921.335	580.329	1119.204	1007.819	502.599	1122.495	997.745	536.880	1058.468
593	2.96000	1122.987	134.151	619.115	1063.515	139.884	517.095	761.862	180.325	381.898	694.879	242.170	430.501	754.142	154.515	243.160	801.719	214.306	223.114	726.727	427.677	480.452	681.097	423.009	365.902	445.571	367.476	155.812	381.336	315.740	153.548	550.635	394.378	43.175	593.108	329.065	47.863	959.992	151.942	458.939	1025.748	117.405	576.645	922.577	136.167	529.553	614.761	440.620	425.098	541.343	417.623	329.535	1048.821	122.744	839.453	1121.436	139.406	752.679	1114.434	112.821	701.727	975.254	78.472	766.601	1050.591	106.496	680.150	863.198	447.745	682.628	818.143	414.637	553.063	751.518	476.583	715.590	714.329	439.178	585.988	914.452	149.456	988.537	708.311	222.772	1043.211	903.393	421.044	984.752	703.514	333.201	1036.041	827.117	314.779	1527.645	826.289	113.533	1505.020	908.145	488.119	1485.460	978.900	276.113	1420.121	696.245	40.197	1330.971	560.400	107.887	1262.133	562.811	25.350	1299.515	669.560	0.248	1151.978	729.588	-1.099	1053.489	682.860	-17.433	1037.304	851.214	581.731	1250.736	739.229	553.710	1143.154	776.399	630.554	1188.224	925.962	576.961	1125.167	1011.841	498.771	1130.854	1002.926	532.167	1066.094
594	2.96500	1127.031	133.973	626.494	1071.946	139.241	521.095	778.047	182.753	369.628	709.386	245.898	413.384	778.431	155.446	231.101	828.349	213.733	213.671	712.817	427.929	486.720	664.942	424.432	372.981	429.253	368.492	163.154	366.264	316.165	163.403	529.452	394.643	43.988	571.761	328.963	47.696	971.534	152.920	457.238	1030.212	118.216	578.907	929.947	138.010	525.892	599.156	440.485	433.090	524.819	417.442	338.170	1050.871	122.834	846.263	1124.200	138.938	760.367	1117.849	113.036	709.199	977.822	78.467	772.255	1054.253	106.756	686.803	856.992	445.573	684.524	807.827	412.814	556.426	746.881	475.542	720.209	705.410	440.049	591.999	916.016	149.229	993.346	709.851	223.518	1046.345	905.986	420.718	987.128	705.513	333.989	1038.300	826.980	315.311	1531.050	823.975	113.990	1508.985	910.007	486.110	1489.920	978.675	274.180	1424.744	692.275	41.079	1336.945	556.553	110.680	1268.985	558.183	28.554	1306.406	664.622	2.578	1159.356	724.302	0.616	1060.317	677.459	-15.583	1044.378	854.605	580.084	1254.840	743.171	552.018	1146.901	780.586	629.127	1191.429	930.439	573.649	1131.498	1015.527	494.944	1139.395	1008.235	527.327	1074.110
595	2.97000	1130.625	132.902	632.928	1079.543	138.980	524.967	794.734	184.963	357.379	724.710	249.956	396.434	802.900	156.141	219.337	854.803	213.586	204.569	699.181	428.230	493.743	649.512	426.101	380.604	414.131	369.512	170.671	352.555	316.461	173.521	508.687	395.106	44.894	550.346	328.828	47.735	983.118	153.486	455.511	1034.082	119.103	580.291	937.331	139.822	521.655	583.989	440.300	441.713	509.205	417.119	347.196	1052.736	122.001	852.582	1126.909	138.384	766.871	1120.812	113.171	715.989	980.218	78.721	777.620	1057.633	106.995	693.064	851.154	443.606	687.023	798.086	411.531	560.869	742.929	475.879	725.237	696.637	441.372	598.331	917.402	149.008	997.781	711.638	224.002	1049.799	908.940	418.547	989.533	707.876	333.241	1041.086	826.787	313.984	1535.066	821.890	114.388	1513.127	911.257	484.871	1494.699	978.297	272.334	1429.524	688.669	41.517	1343.020	552.989	113.697	1275.951	554.035	31.317	1313.175	660.233	5.024	1166.563	719.356	2.589	1067.191	672.445	-13.574	1051.371	858.030	578.467	1259.095	746.632	550.588	1150.611	784.865	627.462	1194.722	934.560	570.326	1137.905	1018.817	491.190	1147.987	1012.725	522.671	1082.152
596	2.97500	1133.254	132.618	638.607	1086.421	138.582	528.285	811.881	187.466	344.998	740.968	253.869	379.775	827.523	157.384	208.193	881.383	213.445	196.012	686.196	428.601	501.608	634.594	427.700	389.157	400.332	370.773	178.142	340.207	316.798	183.925	488.033	395.726	45.557	529.227	328.832	47.907	994.473	154.334	453.671	1037.849	120.015	581.247	944.725	141.519	517.009	569.596	439.995	450.716	494.363	416.387	356.824	1054.621	121.243	858.443	1129.336	138.983	773.251	1123.443	113.074	722.213	982.347	78.918	782.769	1060.371	107.329	698.820	845.625	441.824	689.755	788.930	410.623	565.866	739.177	476.386	730.639	688.814	442.103	605.176	918.888	148.770	1002.059	713.353	224.279	1053.185	911.180	419.742	992.150	709.747	335.251	1043.912	826.545	312.443	1538.944	819.890	114.679	1517.008	912.015	483.754	1499.368	977.988	270.514	1434.216	685.357	41.916	1349.085	549.560	116.787	1282.789	550.158	34.311	1319.844	655.961	7.458	1173.841	714.721	4.511	1074.090	667.760	-11.397	1058.292	861.360	576.843	1263.498	750.116	549.325	1154.529	788.693	626.312	1198.464	938.516	567.127	1144.479	1021.687	487.469	1156.574	1017.041	518.100	1090.380
597	2.98000	1135.223	132.304	643.539	1093.193	138.138	531.120	829.500	189.740	332.878	758.006	258.006	362.992	852.238	158.536	197.389	907.894	213.402	188.008	673.975	428.904	510.086	620.456	429.220	398.218	387.542	372.431	185.456	329.390	317.080	194.412	467.648	396.232	46.273	508.132	329.228	47.993	1005.525	153.190	451.063	1041.251	120.931	581.428	952.281	143.123	512.016	555.570	439.623	460.285	480.381	415.565	366.331	1056.135	120.357	863.931	1131.300	138.342	779.065	1125.667	113.076	727.844	984.163	79.326	787.228	1062.734	107.637	704.107	840.437	440.386	692.885	779.781	409.450	570.544	735.897	477.146	736.129	681.554	442.329	612.054	920.520	148.669	1006.101	715.151	224.914	1056.561	914.031	419.183	995.258	712.105	335.685	1047.015	826.443	312.548	1542.426	817.979	114.930	1520.895	912.943	482.388	1503.923	977.559	268.780	1438.909	681.890	45.038	1354.550	546.713	119.707	1289.478	546.548	37.287	1326.472	652.030	10.036	1180.837	710.612	6.312	1080.923	663.424	-9.385	1065.121	864.670	575.284	1267.962	753.422	547.898	1158.314	792.550	625.247	1202.251	942.129	564.019	1151.134	1024.372	483.703	1165.232	1021.041	513.642	1098.704
598	2.98500	1136.487	132.082	647.652	1099.309	137.547	533.399	847.514	191.887	320.726	775.714	261.679	346.632	877.485	159.505	186.997	934.353	213.283	180.609	662.535	429.122	519.149	607.142	430.711	407.879	376.279	374.567	192.575	320.086	317.720	205.204	447.502	396.657	47.338	487.895	329.833	48.448	1016.415	153.585	448.781	1044.645	121.765	581.108	959.789	145.192	506.402	542.104	438.973	470.457	467.547	414.688	376.068	1057.812	119.530	868.828	1133.004	137.992	784.304	1127.517	113.051	732.749	985.787	79.325	791.647	1064.615	108.067	708.770	835.652	439.417	696.511	771.332	408.537	575.610	732.590	477.753	741.818	674.617	442.937	619.803	921.798	148.516	1009.826	716.974	225.302	1060.160	916.801	418.619	998.788	714.390	336.198	1050.684	826.399	312.209	1545.708	816.394	115.158	1524.607	913.928	480.932	1508.458	977.102	267.186	1443.524	678.855	46.251	1360.316	544.133	122.725	1295.979	543.317	40.283	1332.894	648.487	12.357	1187.777	706.816	8.306	1087.655	659.462	-7.482	1071.931	867.948	573.695	1272.345	756.335	547.117	1162.400	796.176	624.286	1206.248	945.691	560.978	1157.906	1026.735	480.118	1173.780	1024.675	509.423	1107.001
